<svg width="70" height="70" viewBox="0 0 70 70" fill="none" xmlns="http://www.w3.org/2000/svg">
<g clip-path="url(#clip0_466_147)">
<mask id="mask0_466_147" style="mask-type:luminance" maskUnits="userSpaceOnUse" x="0" y="0" width="70" height="70">
<path d="M0 0H70V70H0V0Z" fill="white"/>
</mask>
<g mask="url(#mask0_466_147)">
<path d="M61.9938 12.9326C61.7247 13.3461 61.366 13.6764 60.9525 13.917C65.8114 19.867 68.4555 27.3183 68.4338 35.0001C68.4338 36.8726 68.2828 38.716 67.981 40.5301C68.4826 41.0558 68.9069 41.6502 69.241 42.2954C69.7397 39.9242 70 37.4829 70 35.0001C70 26.8101 67.2066 19.0532 62.0703 12.8079L61.9938 12.9326ZM62.7375 56.2167C62.0454 56.3607 61.342 56.4434 60.6353 56.4639C60.0053 57.2135 59.3403 57.9397 58.6403 58.6426C55.5434 61.7574 51.8593 64.2268 47.8014 65.9079C43.7435 67.589 39.3924 68.4483 35 68.4361C29.6713 68.4361 24.5328 67.1957 19.915 64.8573C19.3171 65.0906 18.6682 65.2802 17.9682 65.4261L17.745 65.4698C23.0048 68.4551 28.9521 70.0174 35 70.0023C39.5981 70.0145 44.153 69.1148 48.4012 67.3553C52.6493 65.5958 56.5064 63.0114 59.7494 59.7517C60.8752 58.6229 61.9136 57.4351 62.8644 56.1882L62.7375 56.2167ZM8.05441 13.9673C8.42191 13.8915 8.78503 13.8353 9.14378 13.7989C9.83795 12.9545 10.5766 12.1407 11.3597 11.3576C14.4568 8.24323 18.141 5.7742 22.1989 4.0935C26.2568 2.41281 30.6078 1.55385 35 1.56637C40.4228 1.56637 45.6466 2.85043 50.3278 5.272L52.6903 4.78637C47.3275 1.63819 41.2186 -0.0145979 35 0.000121493C30.4019 -0.0120313 25.8471 0.88766 21.5989 2.64715C17.3507 4.40664 13.4936 6.99101 10.2507 10.2507C9.00232 11.5005 7.86118 12.824 6.82722 14.2211L8.05441 13.9673ZM5.82097 53.8126C5.55976 52.5961 5.34378 51.3702 5.17347 50.1376C2.79062 45.4481 1.55437 40.2602 1.56628 35.0001C1.56628 33.9457 1.61513 32.9001 1.71284 31.8632L0.809405 27.4707C0.268094 29.9439 -0.00328614 32.4684 3.0026e-05 35.0001C3.0026e-05 42.0832 2.09347 48.847 5.98503 54.5848L5.82097 53.8126Z" fill="#39B54A"/>
<path d="M10.2487 32.7862C10.2601 32.8532 10.285 32.9172 10.3218 32.9744C10.3587 33.0315 10.4067 33.0806 10.4631 33.1187C10.5139 33.1563 10.5723 33.1824 10.6343 33.1952C10.6962 33.2081 10.7602 33.2073 10.8218 33.1931L11.699 33.0115C11.8811 32.9764 12.0541 32.9043 12.2072 32.7997C12.3603 32.6951 12.4904 32.5602 12.5893 32.4034C12.6943 32.2508 12.7668 32.0783 12.8026 31.8966C12.8383 31.7149 12.8365 31.5278 12.7971 31.3468L12.6418 30.5943C12.6067 30.4122 12.5346 30.2393 12.43 30.0861C12.3254 29.933 12.1905 29.8029 12.0337 29.704C11.8811 29.5991 11.7086 29.5265 11.5269 29.4907C11.3452 29.455 11.1581 29.4568 10.9771 29.4962L10.0999 29.6777C10.0376 29.6885 9.97831 29.7126 9.92619 29.7485C9.87408 29.7844 9.83036 29.8311 9.79806 29.8856C9.76143 29.9427 9.73673 30.0066 9.72546 30.0735C9.71418 30.1405 9.71655 30.209 9.73244 30.2749L10.2487 32.7862ZM11.2374 23.754L11.0821 23.0015C11.0467 22.8198 10.9745 22.6473 10.8699 22.4945C10.7654 22.3418 10.6306 22.2121 10.474 22.1134C10.3214 22.0084 10.1489 21.9359 9.96723 21.9001C9.78551 21.8644 9.59841 21.8662 9.41744 21.9056L8.53806 22.0849C8.4761 22.096 8.41725 22.1203 8.36553 22.1561C8.31381 22.192 8.27044 22.2386 8.23838 22.2927C8.20116 22.3438 8.17543 22.4023 8.16297 22.4642C8.15051 22.5261 8.15161 22.59 8.16619 22.6515L8.689 25.1934C8.69842 25.2584 8.72239 25.3206 8.75913 25.3751C8.79587 25.4296 8.84442 25.4752 8.90119 25.5084C9.01056 25.574 9.12869 25.5937 9.25556 25.5674L10.1656 25.3793C10.3413 25.3454 10.5081 25.2758 10.656 25.175C10.8038 25.0742 10.9295 24.9442 11.0253 24.7931C11.131 24.6441 11.2044 24.4748 11.241 24.2959C11.2775 24.117 11.2763 23.9324 11.2374 23.754ZM5.94369 39.3618L1.62119 18.3443C1.60661 18.2828 1.60551 18.2189 1.61797 18.157C1.63043 18.0951 1.65616 18.0366 1.69338 17.9856C1.72544 17.9314 1.76881 17.8848 1.82053 17.8489C1.87225 17.8131 1.9311 17.7888 1.99306 17.7777L8.58181 16.4215C10.4222 16.0423 12.0869 16.2939 13.5759 17.1762C15.0634 18.0599 15.9909 19.3899 16.3584 21.1662C16.44 21.5628 16.5028 21.9201 16.5465 22.2381C16.5903 22.556 16.5873 22.965 16.5378 23.4652C16.4997 23.9163 16.3796 24.3567 16.1834 24.7646C15.9967 25.1307 15.6759 25.4807 15.2209 25.8146C14.7659 26.1486 14.1935 26.3856 13.5037 26.5256C13.2733 26.5737 13.1799 26.702 13.2237 26.9106C13.2674 27.1206 13.4038 27.2008 13.6328 27.1512C14.324 27.0112 14.9438 27.0039 15.4921 27.1293C16.0405 27.2576 16.4729 27.4523 16.7893 27.7134C17.1058 27.9744 17.3858 28.3259 17.6293 28.7677C17.8714 29.2067 18.0355 29.5815 18.1215 29.8921C18.2061 30.2013 18.2899 30.5549 18.3731 30.9531C18.7376 32.7293 18.4095 34.3174 17.3887 35.7174C16.3679 37.1145 14.938 38.0026 13.099 38.3818L6.51025 39.7381C6.44896 39.752 6.38539 39.7526 6.32386 39.7397C6.26233 39.7269 6.20429 39.701 6.15369 39.6637C6.09912 39.6318 6.0521 39.5886 6.01585 39.5368C5.9796 39.4851 5.95498 39.4261 5.94369 39.364M16.6778 15.2468C16.6632 15.1853 16.6621 15.1214 16.6745 15.0595C16.687 14.9976 16.7127 14.9391 16.7499 14.8881C16.7822 14.8336 16.826 14.7869 16.8781 14.751C16.9302 14.7151 16.9895 14.691 17.0518 14.6802L29.6934 12.0771C29.7552 12.0632 29.8192 12.0628 29.8812 12.076C29.9431 12.0892 30.0014 12.1157 30.0521 12.1537C30.1063 12.1857 30.1529 12.2291 30.1887 12.2808C30.2246 12.3326 30.2489 12.3914 30.2599 12.4534L31.1831 16.9399C31.1973 17.0016 31.1981 17.0655 31.1852 17.1275C31.1724 17.1894 31.1463 17.2478 31.1087 17.2987C31.0769 17.3532 31.0336 17.4003 30.9819 17.4365C30.9301 17.4728 30.8712 17.4974 30.809 17.5087L23.6253 18.9852C23.558 18.9969 23.4939 19.0221 23.4367 19.0594C23.3796 19.0966 23.3306 19.1451 23.2928 19.2018C23.2555 19.2528 23.2298 19.3113 23.2173 19.3733C23.2049 19.4352 23.206 19.4991 23.2206 19.5606L23.6078 21.4418C23.6185 21.5042 23.6426 21.5634 23.6785 21.6156C23.7144 21.6677 23.7612 21.7114 23.8156 21.7437C23.873 21.7806 23.9373 21.8055 24.0046 21.8167C24.0719 21.828 24.1408 21.8255 24.2071 21.8093L29.7262 20.6718C29.7906 20.6605 29.8566 20.6621 29.9203 20.6765C29.9841 20.6909 30.0444 20.7178 30.0977 20.7557C30.151 20.7935 30.1962 20.8415 30.2308 20.897C30.2654 20.9524 30.2887 21.0142 30.2993 21.0787L31.2181 25.5346C31.2347 25.6008 31.237 25.6697 31.2249 25.7368C31.2129 25.804 31.1867 25.8678 31.1481 25.924C31.116 25.9781 31.0726 26.0247 31.0209 26.0606C30.9692 26.0965 30.9103 26.1208 30.8484 26.1318L25.3271 27.2693C25.2599 27.281 25.1958 27.3062 25.1386 27.3434C25.0815 27.3807 25.0325 27.4291 24.9946 27.4859C24.9577 27.5366 24.9322 27.5948 24.9197 27.6563C24.9073 27.7178 24.9082 27.7813 24.9224 27.8424L25.3031 29.6931C25.3145 29.7601 25.3394 29.8241 25.3762 29.8813C25.413 29.9384 25.4611 29.9875 25.5174 30.0256C25.5748 30.0625 25.6392 30.0873 25.7065 30.0986C25.7738 30.1099 25.8427 30.1074 25.909 30.0912L33.0928 28.6146C33.1539 28.6004 33.2174 28.5994 33.2789 28.6119C33.3404 28.6243 33.3985 28.6499 33.4493 28.6868C33.5039 28.7186 33.5509 28.7619 33.5872 28.8136C33.6234 28.8654 33.648 28.9243 33.6593 28.9865L34.5824 33.4731C34.597 33.5345 34.5981 33.5984 34.5857 33.6603C34.5732 33.7223 34.5475 33.7808 34.5103 33.8318C34.4782 33.886 34.4348 33.9326 34.3831 33.9684C34.3314 34.0043 34.2725 34.0286 34.2106 34.0396L21.5668 36.6406C21.5057 36.6548 21.4422 36.6557 21.3807 36.6433C21.3192 36.6308 21.261 36.6053 21.2103 36.5684C21.1557 36.5365 21.1087 36.4933 21.0724 36.4415C21.0362 36.3898 21.0115 36.3308 21.0003 36.2687L16.6778 15.2468ZM34.3681 27.7943C34.3141 27.542 34.3965 27.3612 34.6153 27.2518L38.8043 24.8849C38.8671 24.8408 38.9403 24.8139 39.0167 24.807C39.0931 24.8001 39.17 24.8134 39.2396 24.8456C39.3928 24.9112 39.4854 25.0176 39.5174 25.1649L39.6706 25.7556L39.6771 25.7862C39.7865 26.2237 39.9936 26.5409 40.2984 26.7377C40.4515 26.8386 40.624 26.9063 40.8048 26.9365C40.9857 26.9666 41.1708 26.9585 41.3484 26.9127C41.529 26.8824 41.7015 26.8157 41.8557 26.7169C42.0098 26.618 42.1423 26.4889 42.2453 26.3374C42.4436 26.0356 42.4946 25.6542 42.3984 25.1934C42.3308 24.848 42.1395 24.5391 41.8603 24.3249C41.5492 24.0905 41.1859 23.9351 40.8015 23.8721C40.3284 23.785 39.8544 23.7026 39.3796 23.6249C38.8377 23.5367 38.2936 23.463 37.7477 23.404C37.1751 23.3416 36.6132 23.204 36.0765 22.9949C35.5421 22.7931 35.0327 22.5303 34.5584 22.2118C34.0505 21.8515 33.6254 21.3868 33.3115 20.849C32.9141 20.1853 32.6371 19.4566 32.4934 18.6965C32.0413 16.5017 32.3242 14.6715 33.3421 13.2059C34.36 11.7446 35.8731 10.8069 37.8812 10.3927C39.7858 10.0019 41.4884 10.2024 42.989 10.9943C44.4925 11.7862 45.4784 13.1038 45.9465 14.9471C46.0136 15.1732 45.9407 15.3518 45.7277 15.4831L41.5103 17.8543C41.4489 17.9006 41.376 17.929 41.2996 17.9363C41.2231 17.9436 41.1461 17.9296 41.0771 17.8959C40.9211 17.8288 40.8285 17.7223 40.7993 17.5765L40.6462 16.9859L40.6396 16.9552C40.5507 16.5177 40.3538 16.1984 40.049 15.9971C39.8959 15.8962 39.7234 15.8285 39.5425 15.7984C39.3617 15.7683 39.1765 15.7763 38.999 15.8221C38.6313 15.8883 38.3044 16.0965 38.089 16.4018C37.8775 16.7081 37.8199 17.0901 37.9162 17.5481C37.9993 17.9462 38.2217 18.2597 38.5834 18.4887C38.9465 18.722 39.3935 18.881 39.9243 18.9656C40.4537 19.0531 41.0261 19.1318 41.6415 19.2018C42.254 19.2718 42.8825 19.3885 43.5271 19.5518C44.1702 19.7122 44.7798 19.9463 45.3559 20.254C45.9305 20.5602 46.4365 21.0342 46.874 21.6759C47.3115 22.3146 47.6265 23.1058 47.819 24.0493C48.2711 26.2441 47.9882 28.0736 46.9703 29.5377C45.9523 31.0005 44.4502 31.936 42.464 32.3443C40.539 32.7381 38.8247 32.5405 37.3212 31.7515C35.8176 30.9596 34.8325 29.6413 34.3659 27.7965M50.5774 13.9299C50.5661 13.8678 50.5415 13.8088 50.5053 13.7571C50.469 13.7053 50.422 13.6621 50.3674 13.6302C50.3167 13.5933 50.2585 13.5678 50.197 13.5553C50.1355 13.5429 50.072 13.5438 50.0109 13.5581L46.874 14.2034C46.8124 14.2176 46.7484 14.2184 46.6865 14.2055C46.6245 14.1927 46.5661 14.1666 46.5153 14.129C46.4608 14.0967 46.4141 14.053 46.3782 14.0009C46.3423 13.9487 46.3182 13.8895 46.3074 13.8271L45.3843 9.34274C45.37 9.28112 45.3693 9.21714 45.3821 9.15521C45.395 9.09327 45.4211 9.03486 45.4587 8.98399C45.4905 8.92943 45.5338 8.88241 45.5855 8.84615C45.6373 8.8099 45.6962 8.78529 45.7584 8.77399L58.4021 6.17524C58.4633 6.16099 58.5267 6.16006 58.5883 6.17252C58.6498 6.18497 58.7079 6.21052 58.7587 6.24743C58.8724 6.32181 58.9417 6.42243 58.9665 6.54931L59.8896 11.0337C59.9039 11.0953 59.9046 11.1593 59.8918 11.2212C59.879 11.2832 59.8528 11.3416 59.8153 11.3924C59.7834 11.447 59.7401 11.494 59.6884 11.5303C59.6367 11.5665 59.5777 11.5911 59.5156 11.6024L56.3787 12.2477C56.3161 12.2587 56.2567 12.2832 56.2046 12.3195C56.1525 12.3558 56.1089 12.4029 56.0768 12.4577C56.0063 12.5623 55.9796 12.6903 56.0024 12.8143L59.2115 28.4068C59.2254 28.4681 59.226 28.5317 59.2132 28.5932C59.2003 28.6547 59.1744 28.7128 59.1371 28.7634C59.1053 28.8179 59.062 28.865 59.0103 28.9012C58.9586 28.9375 58.8996 28.9621 58.8374 28.9734L54.3531 29.8965C54.2914 29.9108 54.2275 29.9115 54.1655 29.8987C54.1036 29.8858 54.0452 29.8597 53.9943 29.8221C53.9395 29.7901 53.8923 29.7464 53.8561 29.6943C53.8198 29.6422 53.7953 29.5828 53.7843 29.5202L50.5774 13.9299ZM16.4349 57.3343C16.6459 57.2891 16.8311 57.1636 16.9512 56.9843C17.1041 56.7494 17.1896 56.477 17.1984 56.1968C17.2275 55.8643 17.2436 55.5442 17.2465 55.2365C17.2454 54.8551 17.211 54.4745 17.1437 54.099C17.0895 53.75 17.0282 53.4021 16.9599 53.0556L16.6406 51.5024L16.3781 50.2184C16.2902 49.8161 16.191 49.4163 16.0806 49.0196C15.979 48.6192 15.8549 48.2248 15.7087 47.8384C15.5881 47.5371 15.4508 47.2428 15.2974 46.9568C15.1787 46.7029 14.9926 46.4865 14.7593 46.3312C14.5733 46.2225 14.3536 46.1862 14.1425 46.2294C13.9314 46.2726 13.7437 46.3922 13.6153 46.5652C13.468 46.8028 13.383 47.0736 13.3681 47.3527C13.3293 47.6764 13.3146 48.0025 13.3243 48.3284C13.3301 48.6302 13.3761 49.04 13.4621 49.5577C13.5453 50.0755 13.6123 50.4816 13.6634 50.7762C13.7144 51.0708 13.7968 51.501 13.9106 52.0668L14.0024 52.5043L14.1381 53.1627C14.2536 53.7064 14.3864 54.2463 14.5362 54.7815C14.6091 55.0294 14.6966 55.2992 14.7987 55.5909C14.9051 55.8869 15.0116 56.1377 15.1181 56.3434C15.2274 56.5505 15.3478 56.7386 15.479 56.9077C15.6103 57.0769 15.7612 57.198 15.9318 57.2709C16.0886 57.3446 16.265 57.3683 16.4349 57.3343ZM8.85744 54.9215C8.5942 53.7659 8.35571 52.6048 8.14213 51.439C8.04266 50.8711 7.95296 50.3015 7.87306 49.7306C7.78609 49.157 7.72768 48.5796 7.69806 48.0002C7.6841 47.4692 7.69432 46.9378 7.72869 46.4077C7.76515 45.7909 7.86067 45.2753 8.01525 44.8612C8.19328 44.4006 8.4023 43.9526 8.64088 43.5202C8.90338 43.0434 9.22931 42.6445 9.61869 42.3237C10.0124 42.0028 10.4966 41.7068 11.0712 41.4356C11.6487 41.1658 12.3028 40.9543 13.0334 40.8012C13.7655 40.6524 14.445 40.5897 15.0721 40.6131C15.6978 40.6349 16.2534 40.7166 16.739 40.8581C17.2261 40.9966 17.684 41.235 18.1128 41.5734C18.54 41.9088 18.9075 42.2369 19.2153 42.5577C19.5186 42.8771 19.8103 43.3132 20.0903 43.8659C20.3673 44.42 20.5919 44.902 20.764 45.3118C20.9361 45.7216 21.1147 46.2736 21.2999 46.9677C21.4866 47.659 21.6237 48.219 21.7112 48.6477L22.4287 52.1302C22.5162 52.5604 22.611 53.1292 22.7131 53.8365C22.8151 54.5467 22.8684 55.1242 22.8728 55.569C22.8771 56.0138 22.8611 56.5461 22.8246 57.1659C22.8041 57.6925 22.7076 58.2134 22.5381 58.7124C22.3835 59.1266 22.1757 59.5721 21.9146 60.049C21.6521 60.5302 21.3255 60.9306 20.9346 61.2499C20.5409 61.5708 20.0618 61.8653 19.4974 62.1337C18.8753 62.4183 18.2218 62.6291 17.5506 62.7615C16.876 62.9072 16.1865 62.9725 15.4965 62.9562C14.9273 62.9448 14.3617 62.864 13.8121 62.7156C13.312 62.5695 12.8458 62.3256 12.4406 61.9981C12.0513 61.6952 11.6829 61.3663 11.3381 61.0137C10.9849 60.6221 10.6901 60.1815 10.4631 59.7056C10.2205 59.2274 10.0001 58.7383 9.80244 58.2399C9.60154 57.6962 9.42779 57.1428 9.28181 56.5818C9.13049 56.0302 8.98901 55.4781 8.85744 54.9215ZM31.8218 48.8402L31.7299 48.4027L31.6424 47.9652L31.5024 47.2871L31.3428 46.5215C31.2884 46.2377 31.2153 45.9578 31.124 45.6837L30.8418 44.8743C30.7517 44.6179 30.6458 44.3673 30.5246 44.124C30.4226 43.9248 30.3018 43.7358 30.1637 43.5596C30.0466 43.4065 29.8972 43.281 29.7262 43.1921C29.5761 43.1168 29.405 43.0944 29.2406 43.1287L28.3612 43.3102C28.2942 43.3217 28.2301 43.3465 28.173 43.3834C28.1158 43.4202 28.0668 43.4683 28.0287 43.5246C27.9915 43.5757 27.9657 43.6342 27.9533 43.6961C27.9408 43.758 27.9419 43.8219 27.9565 43.8834L30.0412 54.0159C30.0526 54.0829 30.0775 54.1469 30.1143 54.2041C30.1512 54.2612 30.1992 54.3103 30.2556 54.3484C30.3128 54.3857 30.377 54.4109 30.4444 54.4226C30.5117 54.4342 30.5807 54.4321 30.6471 54.4162L31.5243 54.2368C31.6895 54.2032 31.8383 54.1145 31.9465 53.9852C32.0681 53.8362 32.1555 53.6622 32.2024 53.4756C32.2579 53.2685 32.2943 53.049 32.3118 52.8171C32.3274 52.5446 32.3259 52.2713 32.3074 51.999C32.2548 51.16 32.1378 50.3263 31.9574 49.5052L31.8218 48.849M21.4137 39.5696C21.3991 39.5082 21.398 39.4443 21.4105 39.3823C21.4229 39.3204 21.4487 39.2619 21.4859 39.2109C21.5177 39.1563 21.561 39.1093 21.6127 39.073C21.6644 39.0368 21.7234 39.0122 21.7856 39.0009L28.3743 37.6446L28.4049 37.6402C29.2253 37.478 30.0676 37.4595 30.8943 37.5856C31.6497 37.7124 32.2899 37.9071 32.8149 38.1696C33.3356 38.4321 33.8219 38.8609 34.274 39.4559C34.7217 40.0509 35.0761 40.5832 35.3371 41.0527C35.5967 41.5209 35.8599 42.1917 36.1268 43.0652C36.3922 43.9359 36.5804 44.6111 36.6912 45.0909C36.8538 45.8199 37.0092 46.5506 37.1571 47.2827L37.1702 47.3462C37.3598 48.2649 37.4998 48.9722 37.5903 49.4681C37.6807 49.9595 37.774 50.6537 37.8703 51.5506C37.968 52.4489 37.9906 53.1693 37.9381 53.7118C37.887 54.2587 37.7725 54.8931 37.5946 55.6149C37.4167 56.3368 37.1389 56.9223 36.7612 57.3715C36.3178 57.8767 35.8017 58.3131 35.2299 58.6665C34.5839 59.0836 33.8146 59.3942 32.9221 59.5984L32.8915 59.6049L26.3028 60.9612C26.2415 60.9751 26.1779 60.9757 26.1164 60.9629C26.0548 60.95 25.9968 60.9241 25.9462 60.8868C25.8916 60.855 25.8446 60.8117 25.8084 60.76C25.7721 60.7082 25.7475 60.6493 25.7362 60.5871L21.4137 39.5696ZM46.9112 45.7362L46.8193 45.2987L46.7318 44.859L46.5918 44.1852L46.4321 43.4174C46.3777 43.1336 46.3047 42.8538 46.2134 42.5796L45.9312 41.7702C45.8411 41.5138 45.7352 41.2632 45.614 41.0199C45.512 40.8207 45.3911 40.6317 45.2531 40.4556C45.136 40.3024 44.9866 40.1769 44.8156 40.0881C44.6655 40.0127 44.4943 39.9903 44.3299 40.0246L43.4528 40.2062C43.3857 40.2176 43.3217 40.2425 43.2645 40.2793C43.2074 40.3162 43.1583 40.3642 43.1203 40.4206C43.0827 40.4714 43.0565 40.5298 43.0437 40.5918C43.0309 40.6537 43.0316 40.7177 43.0459 40.7793L45.1306 50.9118C45.142 50.9788 45.1669 51.0429 45.2037 51.1C45.2405 51.1572 45.2886 51.2062 45.3449 51.2443C45.4022 51.2816 45.4664 51.3068 45.5337 51.3185C45.6011 51.3302 45.67 51.328 45.7365 51.3121L46.6137 51.1327C46.7789 51.0991 46.9277 51.0105 47.0359 50.8812C47.1575 50.7321 47.2449 50.5581 47.2918 50.3715C47.3472 50.1644 47.3837 49.9442 47.4012 49.7109C47.4187 49.479 47.4172 49.207 47.3968 48.8949C47.3442 48.0559 47.2272 47.2222 47.0468 46.4012L46.9112 45.7449M36.5009 36.4656C36.4863 36.4041 36.4852 36.3402 36.4977 36.2783C36.5101 36.2163 36.5358 36.1578 36.5731 36.1068C36.6051 36.052 36.6487 36.0048 36.7009 35.9685C36.753 35.9323 36.8124 35.9078 36.8749 35.8968L43.4637 34.5406L43.4943 34.5362C44.3145 34.3732 45.1569 34.3539 45.9837 34.4793C46.7406 34.6076 47.3808 34.8031 47.9043 35.0656C48.4264 35.3281 48.9128 35.7568 49.3634 36.3518C49.8111 36.9453 50.1655 37.4776 50.4265 37.9487C50.6861 38.4153 50.9493 39.0862 51.2162 39.9612C51.4816 40.8303 51.6697 41.5048 51.7806 41.9846C51.9434 42.7144 52.0987 43.4458 52.2465 44.1787L52.2596 44.2399C52.4492 45.1631 52.5892 45.8703 52.6796 46.3618C52.77 46.8547 52.8634 47.5496 52.9596 48.4465C53.0573 49.3448 53.0807 50.0652 53.0296 50.6077C52.9786 51.1532 52.8634 51.7875 52.684 52.5109C52.5061 53.2327 52.229 53.8183 51.8527 54.2674C51.4117 54.775 50.8952 55.2118 50.3215 55.5624C49.674 55.9781 48.904 56.2887 48.0115 56.4943L47.9809 56.5009L41.3921 57.8571C41.3308 57.8711 41.2673 57.8716 41.2057 57.8588C41.1442 57.846 41.0862 57.82 41.0356 57.7827C40.9814 57.7507 40.9348 57.7073 40.8989 57.6556C40.8631 57.6039 40.8388 57.545 40.8278 57.4831L36.5009 36.4656ZM54.2218 49.0065C54.1679 48.7557 54.2503 48.5748 54.469 48.464L58.6581 46.1015C58.7194 46.0544 58.7926 46.0254 58.8695 46.0177C58.9464 46.01 59.0239 46.0238 59.0934 46.0577C59.2465 46.1248 59.3391 46.232 59.3712 46.3793L59.5243 46.9677L59.5309 46.9984C59.6402 47.4359 59.8473 47.7531 60.1521 47.9499C60.3052 48.0508 60.4777 48.1185 60.6586 48.1487C60.8394 48.1788 61.0246 48.1707 61.2021 48.1249C61.3827 48.0946 61.5553 48.0279 61.7094 47.929C61.8636 47.8302 61.9961 47.7011 62.099 47.5496C62.2959 47.2477 62.3469 46.8664 62.2521 46.4056C62.1846 46.0602 61.9932 45.7513 61.714 45.5371C61.4036 45.303 61.041 45.1477 60.6574 45.0843C60.1829 44.9971 59.7074 44.9147 59.2312 44.8371C58.7018 44.7496 58.1586 44.676 57.6015 44.6162C57.0289 44.5538 56.467 44.4162 55.9302 44.2071C55.3958 44.0052 54.8864 43.7425 54.4121 43.424C53.9042 43.0636 53.4791 42.599 53.1652 42.0612C52.7676 41.3968 52.4906 40.6674 52.3471 39.9065C51.895 37.7117 52.1787 35.8829 53.1981 34.4202C54.216 32.9561 55.729 32.0176 57.7371 31.6049C59.6402 31.2141 61.3429 31.4146 62.8449 32.2065C64.3499 32.9984 65.335 34.316 65.8003 36.1593C65.8688 36.3853 65.7973 36.564 65.5859 36.6952L61.364 39.0665C61.3029 39.1123 61.2304 39.1405 61.1544 39.1478C61.0783 39.1551 61.0018 39.1414 60.9331 39.1081C60.777 39.041 60.6844 38.9345 60.6552 38.7887L60.5021 38.1981L60.4956 38.1674C60.4066 37.7299 60.2097 37.4106 59.9049 37.2093C59.7519 37.1084 59.5793 37.0407 59.3985 37.0106C59.2176 36.9804 59.0325 36.9885 58.8549 37.0343C58.4872 37.1005 58.1603 37.3087 57.9449 37.614C57.7349 37.9202 57.6766 38.3023 57.7699 38.7602C57.8531 39.1584 58.0762 39.4719 58.4393 39.7009C58.8024 39.9342 59.2494 40.0932 59.7802 40.1777C60.3096 40.2652 60.882 40.344 61.4974 40.414C62.1099 40.484 62.7385 40.5999 63.3831 40.7618C64.0262 40.9222 64.6358 41.1563 65.2118 41.464C65.7864 41.7702 66.2924 42.2442 66.7299 42.8859C67.1674 43.5261 67.4824 44.3172 67.6749 45.2593C68.1256 47.4556 67.8426 49.285 66.8262 50.7477C65.8083 52.2119 64.3062 53.1474 62.3199 53.5543C60.3949 53.951 58.6807 53.7534 57.1771 52.9615C55.6721 52.1711 54.6885 50.8527 54.2218 49.0065Z" fill="white"/>
</g>
</g>
<defs>
<clipPath id="clip0_466_147">
<rect width="70" height="70" fill="white"/>
</clipPath>
</defs>
</svg>
